<svg width="11" height="11" viewBox="0 0 11 11" fill="none" xmlns="http://www.w3.org/2000/svg">
<path fill-rule="evenodd" clip-rule="evenodd" d="M5.50033 0.166504C5.86852 0.166504 6.16699 0.464981 6.16699 0.833171V4.83317H10.167C10.5352 4.83317 10.8337 5.13165 10.8337 5.49984C10.8337 5.86803 10.5352 6.16651 10.167 6.16651H6.16699V10.1665C6.16699 10.5347 5.86852 10.8332 5.50033 10.8332C5.13214 10.8332 4.83366 10.5347 4.83366 10.1665V6.16651H0.833659C0.465469 6.16651 0.166992 5.86803 0.166992 5.49984C0.166992 5.13165 0.465469 4.83317 0.833659 4.83317H4.83366V0.833171C4.83366 0.464981 5.13214 0.166504 5.50033 0.166504Z" fill="#F8F8F9"/>
</svg>
